<svg xmlns="http://www.w3.org/2000/svg" width="19.927" height="25.875" viewBox="0 0 19.927 25.875">
  <g id="cv-file-interface-symbol" transform="translate(-5.179)">
    <g id="_x35_8_24_" transform="translate(5.179)">
      <g id="Group_2" data-name="Group 2">
        <path id="Path_5" data-name="Path 5" d="M17.215,22.843a.875.875,0,0,1-.152.261.644.644,0,0,1-.227.173.78.78,0,0,1-.327.061.806.806,0,0,1-.448-.117.866.866,0,0,1-.286-.311,1.5,1.5,0,0,1-.155-.434,2.508,2.508,0,0,1,0-.979,1.484,1.484,0,0,1,.155-.434.866.866,0,0,1,.286-.311.8.8,0,0,1,.448-.117.738.738,0,0,1,.382.088.854.854,0,0,1,.238.207.717.717,0,0,1,.124.238c.023.08.039.144.048.19h1.475a2.165,2.165,0,0,0-.652-1.437,2.277,2.277,0,0,0-1.574-.514,2.7,2.7,0,0,0-1.03.186,2.259,2.259,0,0,0-.786.524,2.289,2.289,0,0,0-.5.813,3.022,3.022,0,0,0-.176,1.054A3.068,3.068,0,0,0,14.22,23a2.258,2.258,0,0,0,1.268,1.362,2.671,2.671,0,0,0,1.062.2,2.433,2.433,0,0,0,.958-.179,2.165,2.165,0,0,0,.706-.472,2.032,2.032,0,0,0,.434-.658,1.943,1.943,0,0,0,.149-.737H17.308A1.86,1.86,0,0,1,17.215,22.843Z" transform="translate(-8.958 -8.263)"/>
        <path id="Path_6" data-name="Path 6" d="M24.878,22.6h-.014l-.806-2.984h-1.53L24,24.536h1.7l1.537-4.92H25.67Z" transform="translate(-12.565 -8.351)"/>
        <path id="Path_7" data-name="Path 7" d="M21.4,0H5.179V25.875H25.106V3.59Zm1.98,24.152H6.9V1.723H20.516V4.456h2.867v19.7Z" transform="translate(-5.179)"/>
      </g>
    </g>
  </g>
</svg>
