<svg xmlns="http://www.w3.org/2000/svg" width="25.623" height="25.623" viewBox="0 0 25.623 25.623">
  <path id="Icon_awesome-dribbble" data-name="Icon awesome-dribbble" d="M13.374.562A12.811,12.811,0,1,0,26.185,13.374,12.826,12.826,0,0,0,13.374.562Zm8.47,5.908a10.891,10.891,0,0,1,2.471,6.817,25.573,25.573,0,0,0-7.62-.352c-.3-.725-.578-1.363-.962-2.15A14.577,14.577,0,0,0,21.844,6.47ZM20.628,5.205a12.355,12.355,0,0,1-5.735,3.953,58.411,58.411,0,0,0-4.083-6.406A10.915,10.915,0,0,1,20.628,5.205ZM8.722,3.487a69.823,69.823,0,0,1,4.057,6.329A40.817,40.817,0,0,1,2.662,11.149,10.983,10.983,0,0,1,8.722,3.487Zm-6.291,9.9c0-.112,0-.223.006-.334A40.366,40.366,0,0,0,13.683,11.5c.313.613.613,1.235.887,1.857a16.95,16.95,0,0,0-9.326,7.351A10.9,10.9,0,0,1,2.431,13.391Zm4.226,8.633C7.8,19.687,10.9,16.67,15.314,15.165a45.486,45.486,0,0,1,2.334,8.3,10.921,10.921,0,0,1-10.991-1.44Zm12.831.439a47.23,47.23,0,0,0-2.126-7.8,16.062,16.062,0,0,1,6.816.468,10.962,10.962,0,0,1-4.69,7.334Z" transform="translate(-0.563 -0.563)"/>
</svg>
