<svg xmlns="http://www.w3.org/2000/svg" width="25.538" height="25.532" viewBox="0 0 25.538 25.532">
  <path id="Icon_awesome-instagram" data-name="Icon awesome-instagram" d="M12.766,8.458A6.546,6.546,0,1,0,19.312,15,6.536,6.536,0,0,0,12.766,8.458Zm0,10.8A4.256,4.256,0,1,1,17.022,15a4.264,4.264,0,0,1-4.256,4.256ZM21.107,8.19A1.527,1.527,0,1,1,19.58,6.663,1.523,1.523,0,0,1,21.107,8.19Zm4.336,1.55A7.556,7.556,0,0,0,23.38,4.39a7.606,7.606,0,0,0-5.35-2.062c-2.108-.12-8.426-.12-10.534,0a7.6,7.6,0,0,0-5.35,2.057A7.581,7.581,0,0,0,.084,9.734c-.12,2.108-.12,8.426,0,10.534a7.556,7.556,0,0,0,2.062,5.35A7.615,7.615,0,0,0,7.5,27.68c2.108.12,8.426.12,10.534,0a7.556,7.556,0,0,0,5.35-2.062,7.606,7.606,0,0,0,2.062-5.35c.12-2.108.12-8.42,0-10.528ZM22.719,22.53a4.309,4.309,0,0,1-2.427,2.427c-1.681.667-5.669.513-7.526.513s-5.851.148-7.526-.513A4.309,4.309,0,0,1,2.813,22.53C2.147,20.849,2.3,16.861,2.3,15s-.148-5.851.513-7.526A4.309,4.309,0,0,1,5.24,5.051c1.681-.667,5.669-.513,7.526-.513s5.851-.148,7.526.513a4.309,4.309,0,0,1,2.427,2.427c.667,1.681.513,5.669.513,7.526S23.386,20.855,22.719,22.53Z" transform="translate(0.005 -2.238)"/>
</svg>
